<svg width="100" height="100" viewBox="0 0 100 100" fill="none" xmlns="http://www.w3.org/2000/svg">
<rect width="100" height="100" fill="none"/>
<path d="M78.2887 28H15V64.1872H78.2887V28Z" fill="#C9CAC8" stroke="#131618" stroke-miterlimit="10"/>
<path d="M81.9356 31.6467H18.647V67.8339H81.9356V31.6467Z" fill="#C9CAC8" stroke="#131618" stroke-miterlimit="10"/>
<path d="M85.5899 35.3013H22.3013V71.4885H85.5899V35.3013Z" fill="#FAF8F6" stroke="#1D1D1B" stroke-miterlimit="10"/>
<path d="M29.1895 54.2444H53.5558" stroke="#1E1F1D" stroke-linejoin="bevel"/>
<path d="M29.1895 63.377H53.5558" stroke="#1E1F1D" stroke-linejoin="bevel"/>
<path d="M29.1895 58.8105H46.6285" stroke="#1E1F1D" stroke-linejoin="bevel"/>
<path d="M81.9356 38.9482H74.9927V47.9171H81.9356V38.9482Z" fill="#D10828" stroke="#1E1F1D"/>
<path d="M67.1226 40.3274C68.8758 40.3274 68.8758 41.3793 70.6291 41.3793C72.3823 41.3793 72.3823 40.3274 74.1356 40.3274C75.8888 40.3274 75.8888 41.3793 77.6421 41.3793" stroke="#1E1F1D" stroke-miterlimit="10"/>
<path d="M67.1226 42.9067C68.8758 42.9067 68.8758 43.9587 70.6291 43.9587C72.3823 43.9587 72.3823 42.9067 74.1356 42.9067C75.8888 42.9067 75.8888 43.9587 77.6421 43.9587" stroke="#1E1F1D" stroke-miterlimit="10"/>
<path d="M67.1226 45.4937C68.8758 45.4937 68.8758 46.5456 70.6291 46.5456C72.3823 46.5456 72.3823 45.4937 74.1356 45.4937C75.8888 45.4937 75.8888 46.5456 77.6421 46.5456" stroke="#1E1F1D" stroke-miterlimit="10"/>
</svg>
