<svg width="100" height="100" viewBox="0 0 100 100" fill="none" xmlns="http://www.w3.org/2000/svg">
<rect width="100" height="100" fill="none"/>
<path d="M14.2313 65.8192C8.31252 65.8192 3.48749 60.9942 3.48749 55.0754C3.48749 49.1565 8.31252 44.3315 14.2313 44.3315C20.1502 44.3315 24.9752 49.1477 24.9752 55.0754C24.9752 61.003 20.1502 65.8192 14.2313 65.8192ZM14.2313 41.8352C6.93646 41.844 1 47.7805 1 55.0754C1 62.3702 6.93646 68.3067 14.2313 68.3067C21.5262 68.3067 27.4627 62.3702 27.4627 55.0754C27.4627 47.7805 21.5262 41.8352 14.2313 41.8352" fill="#C9CAC8"/>
<path d="M14.2313 65.8192C8.31252 65.8192 3.48749 60.9942 3.48749 55.0754C3.48749 49.1565 8.31252 44.3315 14.2313 44.3315C20.1502 44.3315 24.9752 49.1477 24.9752 55.0754C24.9752 61.003 20.1502 65.8192 14.2313 65.8192ZM14.2313 41.8352C6.93646 41.844 1 47.7805 1 55.0754C1 62.3702 6.93646 68.3067 14.2313 68.3067C21.5262 68.3067 27.4627 62.3702 27.4627 55.0754C27.4627 47.7805 21.5262 41.8352 14.2313 41.8352V41.8352Z" stroke="#1D1D1B" stroke-width="1.5" stroke-linejoin="round"/>
<path d="M89.1205 66.2604C84.8247 66.2604 81.3316 62.7673 81.3316 58.4715C81.3316 54.1757 84.8247 50.6827 89.1205 50.6827C93.4162 50.6827 96.9093 54.1757 96.9093 58.4715C96.9093 62.7673 93.4162 66.2604 89.1205 66.2604ZM89.1205 48.6362C83.6956 48.6362 79.2852 53.0555 79.2852 58.4715C79.2852 63.8875 83.7044 68.3068 89.1205 68.3068C94.5365 68.3068 98.9557 63.8875 98.9557 58.4715C98.9557 53.0555 94.5365 48.6362 89.1205 48.6362" fill="#C9CAC8"/>
<path d="M89.1205 66.2604C84.8247 66.2604 81.3316 62.7673 81.3316 58.4715C81.3316 54.1757 84.8247 50.6827 89.1205 50.6827C93.4162 50.6827 96.9093 54.1757 96.9093 58.4715C96.9093 62.7673 93.4162 66.2604 89.1205 66.2604ZM89.1205 48.6362C83.6956 48.6362 79.2852 53.0555 79.2852 58.4715C79.2852 63.8875 83.7044 68.3068 89.1205 68.3068C94.5365 68.3068 98.9557 63.8875 98.9557 58.4715C98.9557 53.0555 94.5365 48.6362 89.1205 48.6362V48.6362Z" stroke="#1D1D1B" stroke-width="1.5" stroke-linejoin="round"/>
<path d="M14.1079 54.5727C14.1079 54.5727 28.1684 39.7448 46.0307 38.6157" stroke="#1D1D1B" stroke-width="1.5" stroke-linejoin="round"/>
<path d="M89.2354 58.2422L81.1025 43.7671" stroke="#1D1D1B" stroke-width="1.5" stroke-linejoin="round"/>
<path d="M26.6511 32.5998C26.0512 32.2205 25.3456 32 24.6046 32H16.9922" stroke="#1D1D1B" stroke-width="1.5" stroke-linejoin="round"/>
<path d="M30.8851 53.867L22.126 32" stroke="#1D1D1B" stroke-width="1.5" stroke-linejoin="round"/>
<path d="M41.8936 34.2935H45.7483V57.0161H68.4003C71.5582 57.0161 74.4691 55.3136 76.0216 52.5527L82.0462 41.8353" stroke="#1D1D1B" stroke-width="1.5" stroke-linejoin="round"/>
<path d="M29.1475 59.3095L13.9756 57.6423C12.5113 57.4836 11.4087 56.2486 11.4087 54.7755C11.4087 53.179 12.6965 51.8911 14.2931 51.8911H29.5533C31.6085 51.8911 33.2757 53.5583 33.2757 55.6135C33.2757 57.8276 31.3527 59.5565 29.1475 59.3095Z" fill="#FAF8F6"/>
<path d="M29.1475 59.3095L13.9756 57.6423C12.5113 57.4836 11.4087 56.2486 11.4087 54.7755C11.4087 53.179 12.6965 51.8911 14.2931 51.8911H29.5533C31.6085 51.8911 33.2757 53.5583 33.2757 55.6135C33.2757 57.8276 31.3527 59.5565 29.1475 59.3095Z" fill="white" stroke="#1D1D1B" stroke-width="1.5" stroke-linejoin="round"/>
<path d="M31 62.6172H35.3311" stroke="#1D1D1B" stroke-width="1.5" stroke-linejoin="round"/>
<path d="M33.5314 62.6174L29.8442 56.0547" stroke="#1D1D1B" stroke-width="1.5" stroke-linejoin="round"/>
<path d="M79.7531 39.7977V45.9282L76.0306 52.5615C74.487 55.3136 71.5673 57.016 68.4006 57.016H45.7485V36.6045H76.5775C78.3329 36.6045 79.7531 38.0335 79.7531 39.7888" fill="#D10828"/>
<path d="M79.7531 39.7977V45.9282L76.0306 52.5615C74.487 55.3136 71.5673 57.016 68.4006 57.016H45.7485V36.6045H76.5775C78.3329 36.6045 79.7531 38.0335 79.7531 39.7888" stroke="#1D1D1B" stroke-width="1.5" stroke-miterlimit="10"/>
<path d="M79.7531 39.7977V45.9282L76.0306 52.5615C74.487 55.3136 71.5673 57.016 68.4006 57.016H45.7485V36.6045H76.5775C78.3329 36.6045 79.7531 38.0335 79.7531 39.7888V39.7977Z" stroke="#1D1D1B" stroke-width="1.5" stroke-linejoin="round"/>
<path d="M66.1248 48.398C65.7279 48.398 65.3927 48.2745 65.1457 48.0539C64.5635 47.5423 63.7785 47.2336 62.8699 47.216C62.8346 47.216 62.7993 47.216 62.764 47.216C62.7288 47.216 62.6847 47.216 62.6494 47.216C61.7408 47.2336 60.9558 47.5512 60.3736 48.0628C60.1178 48.2745 59.7826 48.398 59.3857 48.398C58.4859 48.398 57.8861 47.754 57.8861 46.8102C57.8861 45.8664 58.4947 45.2313 59.3857 45.2313C59.7826 45.2313 60.1178 45.3548 60.3736 45.5753C60.9558 46.0957 61.7497 46.4044 62.6582 46.4221C62.6935 46.4221 62.7288 46.4221 62.7729 46.4221C62.817 46.4221 62.8523 46.4221 62.8875 46.4221C63.7961 46.4044 64.5812 46.0869 65.1633 45.5753C65.4103 45.3636 65.7543 45.2313 66.1513 45.2313C67.051 45.2313 67.6596 45.8752 67.6596 46.8102C67.6596 47.7452 67.051 48.398 66.1513 48.398H66.1248ZM66.2659 43.3877C66.2659 43.3877 66.1954 43.3877 66.1513 43.3877C65.1986 43.3877 64.3695 43.7052 63.7608 44.2433C63.505 44.455 63.1698 44.5873 62.7729 44.5873C62.3759 44.5873 62.0407 44.4638 61.7938 44.2433C61.1851 43.7052 60.3559 43.3877 59.4033 43.3877C59.368 43.3877 59.3239 43.3877 59.2886 43.3877C57.2863 43.4406 55.8926 44.8696 55.8926 46.819C55.8926 48.7684 57.2951 50.1974 59.2974 50.2503C59.3327 50.2503 59.368 50.2503 59.4121 50.2503C60.3648 50.2503 61.1939 49.9328 61.8026 49.3947C62.0584 49.183 62.3936 49.0595 62.7817 49.0595C63.1698 49.0595 63.5138 49.183 63.7696 49.4035C64.3783 49.9416 65.2074 50.2503 66.1601 50.2503C66.1954 50.2503 66.2395 50.2503 66.2748 50.2503C68.2683 50.1974 69.6708 48.7684 69.6708 46.819C69.6708 44.8696 68.2683 43.4406 66.2659 43.3877" fill="white"/>
</svg>
