<svg width="401" height="401" fill="none" xmlns="http://www.w3.org/2000/svg"><path d="M219.419 38.893a160.776 160.776 0 0 0-27.136-1.303M46.59 143.617a160.524 160.524 0 0 1 14.063-29.192M38.236 177.724c-9.9 74.54 33.595 146.819 104.963 172.697M177.374 358.795a160.795 160.795 0 0 0 27.909 1.272M350.202 254.07a161.103 161.103 0 0 1-6.419 15.215M358.557 219.964c9.9-74.541-33.595-146.82-104.964-172.697" stroke="#1C1C1C" stroke-width="2" stroke-miterlimit="10"/><circle cx="201.138" cy="200.984" r="132" fill="#F8F6F3" stroke="#000" stroke-width="2"/><path d="m310.421 355.799-4.789 2.78-16.345-28.267-28.231 16.274a12.525 12.525 0 0 0-6.286 11.018l.177 14.708-20.726-12.285m69.558-38.069 30.473 23.927m-6.064 2.511c1.021.029 2.064-.206 2.963-.724l9.478-5.463m-81.325 33.962-4.404-7.617-.136-10.927a12.528 12.528 0 0 1 6.286-11.019l28.208-16.28 14.687 25.4-38.404 22.139c-2.203 1.27-4.987.499-6.266-1.679l.029-.017ZM328.683 307.582l-39.419 22.724" stroke="#1C1C1C" stroke-width="2" stroke-linejoin="round"/><path d="M328.683 307.582s-5.197 31.379-26.52 45.833m-60.881 18.49c6.754-3.893 9.079-12.57 5.177-19.319-3.902-6.748-12.569-9.07-19.345-5.183-6.753 3.893-9.079 12.57-5.176 19.319 3.902 6.748 12.591 9.076 19.344 5.183Zm95.933-47.23c8.434-4.862 11.328-15.663 6.455-24.091-4.873-8.428-15.689-11.326-24.124-6.464-8.434 4.862-11.328 15.663-6.449 24.069 4.874 8.428 15.689 11.326 24.124 6.463l-.006.023Z" stroke="#1C1C1C" stroke-width="2" stroke-linejoin="round"/><path d="m234.221 360.028 20.561 12.166" stroke="#1C1C1C" stroke-width="2" stroke-miterlimit="10"/><path d="M325.226 155.452c-2.206 1.749-3.765 3.003-3.841 3.27-.95 3.384.609 2.091-.836 7.3-.913 3.194-2.205 6.236-3.802 9.125l-5.894 10.647c-.951.076-1.787.152-2.7.798-3.65 2.51-6.73 5.59-8.973 9.316-2.586 4.296-2.814 8.783-.266 13.346 2.737 4.867 1.597 8.745-3.004 10.95-3.954 1.864-9.049-.266-10.76-4.752-1.864-4.905-2.624-10.115-4.107-15.134-1.977-6.844-4.296-13.65-10.152-18.06-7.643-5.742-14.677-12.206-22.167-18.175-2.282-1.825-4.905-3.156-8.099-1.635-3.65 1.711-4.411 5.589-1.939 8.783 2.243 2.814 5.133 4.981 7.946 7.186 3.651 2.852 7.149 5.818 10.457 9.012 2.053 1.977 3.042 4.524 3.232 7.262.304 5.019.57 10.076-2.092 14.677-1.406 2.357-3.155 4.03-6.007 4.449-2.472.342-3.08-.038-4.069-2.32-.912-2.091-.646-4.296-.912-6.426-.609-5.551-3.346-9.772-8.023-12.433-5.741-3.27-10.418-7.529-14.297-12.814-2.965-3.992-4.981-4.296-9.163-1.863a89.066 89.066 0 0 0-3.156 2.015c-2.89 2.015-5.97 3.612-9.43 4.411-2.205.494-4.448.418-6.654.456-4.562.076-7.984 1.901-10.418 5.856-2.89 4.677-5.399 9.543-6.806 14.867-1.027 3.84-3.802 6.882-7.566 8.175-.799.266-1.597.532-2.396.836-5.627 1.901-11.255 3.878-17.11 5.171-8.783 1.901-11.521-.684-15.019-5.931-2.358-3.537-4.601-7.339-4.183-11.902.343-3.536 1.065-7.11 2.358-10.418 2.281-5.893 3.65-11.977 4.41-18.213.761-6.388 3.575-6.578 8.137-6.007 4.943.608 9.544 2.661 14.449 3.384 2.966.418 5.931.38 8.897-.343 7.377-1.711 11.179-10.988 6.882-18.022-.95-1.559-1.939-3.042-2.851-4.601-3.194-5.513-.989-9.24 4.03-11.483 2.205-1.027 4.677-1.521 7.034-2.319 5.019-1.673 8.898-4.867 11.978-9.088 2.395-3.27 4.942-6.35 7.794-9.201.418-.419.837-.799 1.255-1.141 3.042-2.472 6.654-3.726 10.722-3.726 6.236 0 12.282-1.901 17.833-4.791 5.285-2.738 10.913-3.308 16.616-2.205 5.97 1.178 10.722-.533 14.867-4.64 2.547-2.47 5.361-4.22 8.973-4.828a5.227 5.227 0 0 0 1.749-.685c21.331 15.324 37.871 36.807 47.073 61.864ZM103.401 203.779C97.736 216.212 81.5 240.166 81.5 240.166s-2.548 1.369-5.21 3.422l-.304-.152a132.989 132.989 0 0 1-5.931-25.627c-.647-5.133-1.027-10.342-1.065-15.627v-1.217c0-19.468 4.22-37.985 11.787-54.639l16.882 29.24c3.346 5.437 10.153 18.593 5.742 28.213ZM165.758 92.752c.19 3.156-1.521 5.095-4.221 6.312-2.547 1.178-4.829.722-6.996-1.141-1.445-1.293-3.194-2.053-5.209-2.357-3.46-.495-5.931-2.586-7.643-5.59-1.444-2.471-1.178-5.019.685-7.148.152-.152.266-.304.456-.456l14.183-5.97c2.129.19 3.916 1.293 5.133 3.84 1.749 3.65 2.889 8.555 3.612 12.51ZM196.404 106.592c-1.102 2.966-3.118 5.552-5.741 7.567-5.894 4.677-14.791 6.578-22.32 4.486-2.015-.57-4.258-1.596-4.562-3.65-.342-1.977 1.445-3.46 3.156-4.715 2.623-1.863 5.361-3.612 7.68-5.855 2.168-2.053 4.981-3.84 4.753-7.262-.342-4.981.837-9.468 3.004-13.879 1.407-2.89 1.255-5.893-.494-8.86-.571-.912-1.027-1.862-1.445-2.813-.19-.418-.266-.76-.266-1.102l14.79-1.483h.457c.266.38.304.988.076 1.749-.304 1.064-.837 2.129-1.483 3.194-.304.532-.494 1.216-.723 1.787-2.091 4.943-1.863 9.43 2.092 13.384.57.608.95 1.254 1.331 1.977 2.737 5.21 1.482 10.608-.305 15.475ZM295.34 292.98c-.799.799-1.369 1.597-1.787 2.434-23.803 23.346-56.464 37.718-92.434 37.718-1.369 0-2.699-.038-4.068-.076l-.228-1.103-9.202-23.308s-38.213-5.323-41.141-36.159c0 0 1.864-19.582 7.035-24.677a30.696 30.696 0 0 0 6.426-9.049c1.33-2.928 4.106-4.981 7.338-5.324l4.144-.456 22.852-2.623s12.624 10.266 17.947 10.038c5.361-.229 10.76-5.552 15.627-6.008 4.829-.418 21.483 6.73 21.483 6.73l28.821 44.943s12.206 1.825 17.187 6.92Z" fill="#E4002B" stroke="#1D1D1B" stroke-width="2" stroke-linejoin="round"/><path d="M151.09 45.69 98.944 14.93l-6.463 3.692m23.205 5.7.369 27.315c.102 7.793-4.024 15.02-10.84 18.913l-7.756 4.43M81.443 43.472l28.916 25.152 10.589 4.218m-4.436 2.534 7.58-4.33M87.265 40.596c-.96-.036-1.937.17-2.795.68l-8.872 5.068m-14.09 54.002 38.036-21.726-13.046-22.357-38.036 21.726m13.046 22.357-6.523-11.178-6.523-11.179m13.046 22.357L48.462 77.988m40.555-17.375.693-9.922m12.505 11.092 13.543-7.736m23.788-28.139c-10.694 6.108-14.343 19.724-8.136 30.361 6.207 10.637 19.951 14.32 30.644 8.211 10.671-6.114 14.319-19.73 8.112-30.367-6.207-10.637-19.95-14.32-30.644-8.211l.024.006Zm-67.6 38.612c-10.693 6.108-14.341 19.724-8.134 30.36 6.213 10.614 19.956 14.297 30.65 8.189 10.693-6.108 14.342-19.725 8.135-30.361-6.207-10.637-19.95-14.32-30.644-8.211l-.006.023Z" stroke="#1C1C1C" stroke-width="2" stroke-linejoin="round"/><path d="M49.704 78.21 62.13 98.914l35.44-20.46L86.41 57.49 49.705 78.21Z" fill="#F8F6F3"/></svg>