<svg width="194" height="49" viewBox="0 0 194 49" fill="none" xmlns="http://www.w3.org/2000/svg">
    <title>Logo Cycloon</title>
    <path d="M18.0737 29.761C12.3084 29.761 8.92874 25.6036 8.92874 19.8906C8.92874 14.1776 12.7199 10.0202 18.4852 10.0202C22.7438 10.0202 25.9107 12.3081 27.264 15.789H36.1439C34.4314 7.73915 27.5744 2.23193 18.4852 2.23193C7.88936 2.23193 0 9.70974 0 19.8906C0 30.0714 7.4813 37.5527 18.0772 37.5527C27.1663 37.5527 34.0233 32.0455 35.7393 23.9957H26.8559C25.5096 27.48 22.3392 29.761 18.0737 29.761Z" fill="#E4002B"/>
    <path d="M57.0402 11.9319V24.0973C57.0402 28.0489 54.9475 29.8661 52.1573 29.8661C49.2519 29.8661 47.2744 28.1501 47.2744 24.0973L47.6859 11.9319H39.8942L39.7582 15.9114L39.4827 24.0973C39.4827 32.032 43.5913 35.8616 48.1184 36.8625C48.9509 37.0474 49.8013 37.1398 50.654 37.1381C51.9244 37.1697 53.1813 36.8703 54.3009 36.2692C55.4206 35.6681 56.3646 34.786 57.0402 33.7096V36.7405C57.0402 40.6363 55.5369 42.2477 52.1084 42.2477C49.6147 42.2477 48.2719 41.571 47.4836 39.8585H39.6989C40.9964 46.1959 46.0362 49 52.1154 49C59.1258 49 64.8388 45.4146 64.8388 36.4824V11.9319H57.0402Z" fill="#E4002B"/>
    <path d="M82.1603 30.2704C78.6272 30.2704 76.2311 27.7243 76.2311 24.0343C76.2311 20.3442 78.6202 17.8016 82.1603 17.8016C84.7552 17.8016 86.7816 19.1549 87.6641 21.2894H95.5604C94.4687 14.9556 89.2824 10.54 82.1603 10.54C74.0547 10.54 68.3417 16.253 68.3417 24.0413C68.3417 31.8295 74.0547 37.5494 82.1603 37.5494C89.2754 37.5494 94.4687 33.1339 95.5604 26.7966H87.6641C86.7816 28.9311 84.7552 30.2704 82.1603 30.2704Z" fill="#E4002B"/>
    <path d="M99.1358 0V36.8763H106.928V0H99.1358Z" fill="#E4002B"/>
    <path d="M151.307 10.5608C151.164 10.5434 151.019 10.5364 150.875 10.5399C147.108 10.5399 143.861 11.7815 141.458 13.8882C140.362 14.7849 138.984 15.2622 137.569 15.2345C136.16 15.2613 134.79 14.7796 133.708 13.8777C131.308 11.785 128.061 10.5294 124.291 10.5294C124.139 10.526 123.988 10.5329 123.837 10.5504C115.976 10.7561 110.476 16.3819 110.476 24.0341C110.476 31.6863 115.976 37.3295 123.858 37.5179C124.002 37.5353 124.146 37.5423 124.291 37.5388C128.054 37.5388 131.301 36.2972 133.708 34.1871L133.729 34.208C134.814 33.3093 136.188 32.8325 137.597 32.8652C139.005 32.8325 140.379 33.3093 141.464 34.208L141.485 34.1871C143.882 36.3181 147.129 37.5388 150.875 37.5388C151.026 37.5422 151.177 37.5352 151.328 37.5179C159.186 37.3086 164.686 31.6863 164.686 24.0341C164.686 16.3819 159.186 10.7387 151.307 10.5608ZM150.875 30.2877C149.466 30.3207 148.092 29.8439 147.007 28.9449L146.986 28.9659C144.691 26.9185 141.607 25.7187 138.029 25.635C137.886 25.6176 137.741 25.6106 137.597 25.6141C137.444 25.6106 137.291 25.6176 137.14 25.635C133.565 25.7187 130.481 26.9394 128.186 28.9659L128.166 28.9449C127.08 29.8436 125.707 30.3204 124.298 30.2877C120.761 30.2877 118.368 27.7451 118.368 24.0446C118.368 20.344 120.747 17.8189 124.298 17.8189C125.707 17.7862 127.08 18.263 128.166 19.1617C130.461 21.1881 133.565 22.4088 137.14 22.4925C137.284 22.5099 137.43 22.5169 137.576 22.5135C137.727 22.5169 137.879 22.5099 138.029 22.4925C141.607 22.4088 144.691 21.1881 146.986 19.1617C148.079 18.2624 149.459 17.7858 150.875 17.8189C154.408 17.8189 156.804 20.3615 156.804 24.0446C156.804 27.7277 154.408 30.2877 150.875 30.2877Z" fill="#E4002B"/>
    <path d="M180.37 10.5435C172.784 10.5435 167.696 14.959 167.696 23.5808V36.8762H175.487V23.5808C175.487 19.528 177.461 17.812 180.37 17.812C183.279 17.812 185.253 19.528 185.253 23.5808V36.8762H193.045V23.5808C193.041 14.9241 187.953 10.5435 180.37 10.5435Z" fill="#E4002B"/>
</svg>